<?xml version="1.0" standalone="no"?>
<!DOCTYPE svg PUBLIC "-//W3C//DTD SVG 1.1//EN" "http://www.w3.org/Graphics/SVG/1.1/DTD/svg11.dtd">
<svg width="800" height="600" version="1.1" xmlns="http://www.w3.org/2000/svg">
<rect width="800" height="600" x="0" y="0" style="fill:rgb(238,238,238);stroke:none"/>
<rect width="800" height="600" x="0" y="0" style="fill:rgb(255,255,255);stroke:none"/>
<text x="2" y="566" fill="rgb(0,0,0)" font-family="Arial" font-size="12">0</text>
<text x="2" y="508" fill="rgb(0,0,0)" font-family="Arial" font-size="12">100000</text>
<text x="2" y="450" fill="rgb(0,0,0)" font-family="Arial" font-size="12">200000</text>
<text x="2" y="391" fill="rgb(0,0,0)" font-family="Arial" font-size="12">300000</text>
<text x="2" y="333" fill="rgb(0,0,0)" font-family="Arial" font-size="12">400000</text>
<text x="2" y="274" fill="rgb(0,0,0)" font-family="Arial" font-size="12">500000</text>
<text x="2" y="216" fill="rgb(0,0,0)" font-family="Arial" font-size="12">600000</text>
<text x="2" y="158" fill="rgb(0,0,0)" font-family="Arial" font-size="12">700000</text>
<text x="2" y="99" fill="rgb(0,0,0)" font-family="Arial" font-size="12">800000</text>
<text x="295" y="30" fill="rgb(0,0,0)" font-family="Arial" font-size="12">Quality score distribution over all sequences</text>
<line x1="47" y1="560" x2="790" y2="560" stroke="rgb(0,0,0)" stroke-width="1"/>
<line x1="47" y1="560" x2="47" y2="40" stroke="rgb(0,0,0)" stroke-width="1"/>
<text x="295" y="595" fill="rgb(0,0,0)" font-family="Arial" font-size="12">Mean Sequence Quality (Phred Score)</text>
<text x="54" y="575" fill="rgb(0,0,0)" font-family="Arial" font-size="12">2</text>
<rect width="20" height="520" x="67" y="40" style="fill:rgb(230,230,230);stroke:none"/>
<text x="74" y="575" fill="rgb(0,0,0)" font-family="Arial" font-size="12">3</text>
<text x="94" y="575" fill="rgb(0,0,0)" font-family="Arial" font-size="12">4</text>
<rect width="20" height="520" x="107" y="40" style="fill:rgb(230,230,230);stroke:none"/>
<text x="114" y="575" fill="rgb(0,0,0)" font-family="Arial" font-size="12">5</text>
<text x="134" y="575" fill="rgb(0,0,0)" font-family="Arial" font-size="12">6</text>
<rect width="20" height="520" x="147" y="40" style="fill:rgb(230,230,230);stroke:none"/>
<text x="154" y="575" fill="rgb(0,0,0)" font-family="Arial" font-size="12">7</text>
<text x="174" y="575" fill="rgb(0,0,0)" font-family="Arial" font-size="12">8</text>
<rect width="20" height="520" x="187" y="40" style="fill:rgb(230,230,230);stroke:none"/>
<text x="194" y="575" fill="rgb(0,0,0)" font-family="Arial" font-size="12">9</text>
<text x="210" y="575" fill="rgb(0,0,0)" font-family="Arial" font-size="12">10</text>
<rect width="20" height="520" x="227" y="40" style="fill:rgb(230,230,230);stroke:none"/>
<text x="230" y="575" fill="rgb(0,0,0)" font-family="Arial" font-size="12">11</text>
<text x="250" y="575" fill="rgb(0,0,0)" font-family="Arial" font-size="12">12</text>
<rect width="20" height="520" x="267" y="40" style="fill:rgb(230,230,230);stroke:none"/>
<text x="270" y="575" fill="rgb(0,0,0)" font-family="Arial" font-size="12">13</text>
<text x="290" y="575" fill="rgb(0,0,0)" font-family="Arial" font-size="12">14</text>
<rect width="20" height="520" x="307" y="40" style="fill:rgb(230,230,230);stroke:none"/>
<text x="310" y="575" fill="rgb(0,0,0)" font-family="Arial" font-size="12">15</text>
<text x="330" y="575" fill="rgb(0,0,0)" font-family="Arial" font-size="12">16</text>
<rect width="20" height="520" x="347" y="40" style="fill:rgb(230,230,230);stroke:none"/>
<text x="350" y="575" fill="rgb(0,0,0)" font-family="Arial" font-size="12">17</text>
<text x="370" y="575" fill="rgb(0,0,0)" font-family="Arial" font-size="12">18</text>
<rect width="20" height="520" x="387" y="40" style="fill:rgb(230,230,230);stroke:none"/>
<text x="390" y="575" fill="rgb(0,0,0)" font-family="Arial" font-size="12">19</text>
<text x="410" y="575" fill="rgb(0,0,0)" font-family="Arial" font-size="12">20</text>
<rect width="20" height="520" x="427" y="40" style="fill:rgb(230,230,230);stroke:none"/>
<text x="430" y="575" fill="rgb(0,0,0)" font-family="Arial" font-size="12">21</text>
<text x="450" y="575" fill="rgb(0,0,0)" font-family="Arial" font-size="12">22</text>
<rect width="20" height="520" x="467" y="40" style="fill:rgb(230,230,230);stroke:none"/>
<text x="470" y="575" fill="rgb(0,0,0)" font-family="Arial" font-size="12">23</text>
<text x="490" y="575" fill="rgb(0,0,0)" font-family="Arial" font-size="12">24</text>
<rect width="20" height="520" x="507" y="40" style="fill:rgb(230,230,230);stroke:none"/>
<text x="510" y="575" fill="rgb(0,0,0)" font-family="Arial" font-size="12">25</text>
<text x="530" y="575" fill="rgb(0,0,0)" font-family="Arial" font-size="12">26</text>
<rect width="20" height="520" x="547" y="40" style="fill:rgb(230,230,230);stroke:none"/>
<text x="550" y="575" fill="rgb(0,0,0)" font-family="Arial" font-size="12">27</text>
<text x="570" y="575" fill="rgb(0,0,0)" font-family="Arial" font-size="12">28</text>
<rect width="20" height="520" x="587" y="40" style="fill:rgb(230,230,230);stroke:none"/>
<text x="590" y="575" fill="rgb(0,0,0)" font-family="Arial" font-size="12">29</text>
<text x="610" y="575" fill="rgb(0,0,0)" font-family="Arial" font-size="12">30</text>
<rect width="20" height="520" x="627" y="40" style="fill:rgb(230,230,230);stroke:none"/>
<text x="630" y="575" fill="rgb(0,0,0)" font-family="Arial" font-size="12">31</text>
<text x="650" y="575" fill="rgb(0,0,0)" font-family="Arial" font-size="12">32</text>
<rect width="20" height="520" x="667" y="40" style="fill:rgb(230,230,230);stroke:none"/>
<text x="670" y="575" fill="rgb(0,0,0)" font-family="Arial" font-size="12">33</text>
<text x="690" y="575" fill="rgb(0,0,0)" font-family="Arial" font-size="12">34</text>
<rect width="20" height="520" x="707" y="40" style="fill:rgb(230,230,230);stroke:none"/>
<text x="710" y="575" fill="rgb(0,0,0)" font-family="Arial" font-size="12">35</text>
<text x="730" y="575" fill="rgb(0,0,0)" font-family="Arial" font-size="12">36</text>
<rect width="20" height="520" x="747" y="40" style="fill:rgb(230,230,230);stroke:none"/>
<text x="750" y="575" fill="rgb(0,0,0)" font-family="Arial" font-size="12">37</text>
<text x="770" y="575" fill="rgb(0,0,0)" font-family="Arial" font-size="12">38</text>
<line x1="47" y1="560" x2="790" y2="560" stroke="rgb(180,180,180)" stroke-width="1"/>
<line x1="47" y1="502" x2="790" y2="502" stroke="rgb(180,180,180)" stroke-width="1"/>
<line x1="47" y1="444" x2="790" y2="444" stroke="rgb(180,180,180)" stroke-width="1"/>
<line x1="47" y1="385" x2="790" y2="385" stroke="rgb(180,180,180)" stroke-width="1"/>
<line x1="47" y1="327" x2="790" y2="327" stroke="rgb(180,180,180)" stroke-width="1"/>
<line x1="47" y1="268" x2="790" y2="268" stroke="rgb(180,180,180)" stroke-width="1"/>
<line x1="47" y1="210" x2="790" y2="210" stroke="rgb(180,180,180)" stroke-width="1"/>
<line x1="47" y1="152" x2="790" y2="152" stroke="rgb(180,180,180)" stroke-width="1"/>
<line x1="47" y1="93" x2="790" y2="93" stroke="rgb(180,180,180)" stroke-width="1"/>
<line x1="57" y1="560" x2="77" y2="560" stroke="rgb(136,34,85)" stroke-width="1"/>
<line x1="77" y1="560" x2="97" y2="560" stroke="rgb(136,34,85)" stroke-width="1"/>
<line x1="97" y1="560" x2="117" y2="560" stroke="rgb(136,34,85)" stroke-width="1"/>
<line x1="117" y1="560" x2="137" y2="560" stroke="rgb(136,34,85)" stroke-width="1"/>
<line x1="137" y1="560" x2="157" y2="560" stroke="rgb(136,34,85)" stroke-width="1"/>
<line x1="157" y1="560" x2="177" y2="560" stroke="rgb(136,34,85)" stroke-width="1"/>
<line x1="177" y1="560" x2="197" y2="560" stroke="rgb(136,34,85)" stroke-width="1"/>
<line x1="197" y1="560" x2="217" y2="560" stroke="rgb(136,34,85)" stroke-width="1"/>
<line x1="217" y1="560" x2="237" y2="560" stroke="rgb(136,34,85)" stroke-width="1"/>
<line x1="237" y1="560" x2="257" y2="560" stroke="rgb(136,34,85)" stroke-width="1"/>
<line x1="257" y1="560" x2="277" y2="560" stroke="rgb(136,34,85)" stroke-width="1"/>
<line x1="277" y1="560" x2="297" y2="560" stroke="rgb(136,34,85)" stroke-width="1"/>
<line x1="297" y1="560" x2="317" y2="560" stroke="rgb(136,34,85)" stroke-width="1"/>
<line x1="317" y1="560" x2="337" y2="560" stroke="rgb(136,34,85)" stroke-width="1"/>
<line x1="337" y1="560" x2="357" y2="560" stroke="rgb(136,34,85)" stroke-width="1"/>
<line x1="357" y1="560" x2="377" y2="560" stroke="rgb(136,34,85)" stroke-width="1"/>
<line x1="377" y1="560" x2="397" y2="560" stroke="rgb(136,34,85)" stroke-width="1"/>
<line x1="397" y1="560" x2="417" y2="560" stroke="rgb(136,34,85)" stroke-width="1"/>
<line x1="417" y1="560" x2="437" y2="560" stroke="rgb(136,34,85)" stroke-width="1"/>
<line x1="437" y1="560" x2="457" y2="560" stroke="rgb(136,34,85)" stroke-width="1"/>
<line x1="457" y1="560" x2="477" y2="560" stroke="rgb(136,34,85)" stroke-width="1"/>
<line x1="477" y1="560" x2="497" y2="560" stroke="rgb(136,34,85)" stroke-width="1"/>
<line x1="497" y1="560" x2="517" y2="559" stroke="rgb(136,34,85)" stroke-width="1"/>
<line x1="517" y1="559" x2="537" y2="558" stroke="rgb(136,34,85)" stroke-width="1"/>
<line x1="537" y1="558" x2="557" y2="557" stroke="rgb(136,34,85)" stroke-width="1"/>
<line x1="557" y1="557" x2="577" y2="556" stroke="rgb(136,34,85)" stroke-width="1"/>
<line x1="577" y1="556" x2="597" y2="554" stroke="rgb(136,34,85)" stroke-width="1"/>
<line x1="597" y1="554" x2="617" y2="552" stroke="rgb(136,34,85)" stroke-width="1"/>
<line x1="617" y1="552" x2="637" y2="550" stroke="rgb(136,34,85)" stroke-width="1"/>
<line x1="637" y1="550" x2="657" y2="546" stroke="rgb(136,34,85)" stroke-width="1"/>
<line x1="657" y1="546" x2="677" y2="542" stroke="rgb(136,34,85)" stroke-width="1"/>
<line x1="677" y1="542" x2="697" y2="534" stroke="rgb(136,34,85)" stroke-width="1"/>
<line x1="697" y1="534" x2="717" y2="522" stroke="rgb(136,34,85)" stroke-width="1"/>
<line x1="717" y1="522" x2="737" y2="493" stroke="rgb(136,34,85)" stroke-width="1"/>
<line x1="737" y1="493" x2="757" y2="357" stroke="rgb(136,34,85)" stroke-width="1"/>
<line x1="757" y1="357" x2="777" y2="40" stroke="rgb(136,34,85)" stroke-width="1"/>
<rect width="156" height="23" x="634" y="40" style="fill:rgb(255,255,255);stroke:none"/>
<rect width="156" height="23" x="634" y="40" rx="0" ry="0" style="fill:none;stroke-width:1;stroke:rgb(192,192,192)"/>
<text x="637" y="55" fill="rgb(136,34,85)" font-family="Arial" font-size="12" font-weight="bold">Average Quality per read</text>
</svg>
