<?xml version="1.0" standalone="no"?>
<!DOCTYPE svg PUBLIC "-//W3C//DTD SVG 1.1//EN" "http://www.w3.org/Graphics/SVG/1.1/DTD/svg11.dtd">
<svg width="800" height="600" version="1.1" xmlns="http://www.w3.org/2000/svg">
<rect width="800" height="600" x="0" y="0" style="fill:rgb(238,238,238);stroke:none"/>
<rect width="800" height="600" x="0" y="0" style="fill:rgb(255,255,255);stroke:none"/>
<text x="2" y="566" fill="rgb(0,0,0)" font-family="Arial" font-size="12">0</text>
<text x="2" y="540" fill="rgb(0,0,0)" font-family="Arial" font-size="12">2</text>
<text x="2" y="514" fill="rgb(0,0,0)" font-family="Arial" font-size="12">4</text>
<text x="2" y="488" fill="rgb(0,0,0)" font-family="Arial" font-size="12">6</text>
<text x="2" y="462" fill="rgb(0,0,0)" font-family="Arial" font-size="12">8</text>
<text x="2" y="436" fill="rgb(0,0,0)" font-family="Arial" font-size="12">10</text>
<text x="2" y="410" fill="rgb(0,0,0)" font-family="Arial" font-size="12">12</text>
<text x="2" y="384" fill="rgb(0,0,0)" font-family="Arial" font-size="12">14</text>
<text x="2" y="358" fill="rgb(0,0,0)" font-family="Arial" font-size="12">16</text>
<text x="2" y="332" fill="rgb(0,0,0)" font-family="Arial" font-size="12">18</text>
<text x="2" y="306" fill="rgb(0,0,0)" font-family="Arial" font-size="12">20</text>
<text x="2" y="280" fill="rgb(0,0,0)" font-family="Arial" font-size="12">22</text>
<text x="2" y="254" fill="rgb(0,0,0)" font-family="Arial" font-size="12">24</text>
<text x="2" y="228" fill="rgb(0,0,0)" font-family="Arial" font-size="12">26</text>
<text x="2" y="202" fill="rgb(0,0,0)" font-family="Arial" font-size="12">28</text>
<text x="2" y="176" fill="rgb(0,0,0)" font-family="Arial" font-size="12">30</text>
<text x="2" y="150" fill="rgb(0,0,0)" font-family="Arial" font-size="12">32</text>
<text x="2" y="124" fill="rgb(0,0,0)" font-family="Arial" font-size="12">34</text>
<text x="2" y="98" fill="rgb(0,0,0)" font-family="Arial" font-size="12">36</text>
<text x="2" y="72" fill="rgb(0,0,0)" font-family="Arial" font-size="12">38</text>
<text x="2" y="46" fill="rgb(0,0,0)" font-family="Arial" font-size="12">40</text>
<text x="229" y="30" fill="rgb(0,0,0)" font-family="Arial" font-size="12">Quality scores across all bases (Sanger / Illumina 1.9 encoding)</text>
<rect width="20" height="260" x="19" y="300" style="fill:rgb(230,175,175);stroke:none"/>
<rect width="20" height="104" x="19" y="196" style="fill:rgb(230,215,175);stroke:none"/>
<rect width="20" height="156" x="19" y="40" style="fill:rgb(175,230,175);stroke:none"/>
<text x="26" y="575" fill="rgb(0,0,0)" font-family="Arial" font-size="12">1</text>
<rect width="20" height="260" x="39" y="300" style="fill:rgb(230,195,195);stroke:none"/>
<rect width="20" height="104" x="39" y="196" style="fill:rgb(230,220,195);stroke:none"/>
<rect width="20" height="156" x="39" y="40" style="fill:rgb(195,230,195);stroke:none"/>
<text x="46" y="575" fill="rgb(0,0,0)" font-family="Arial" font-size="12">2</text>
<rect width="20" height="260" x="59" y="300" style="fill:rgb(230,175,175);stroke:none"/>
<rect width="20" height="104" x="59" y="196" style="fill:rgb(230,215,175);stroke:none"/>
<rect width="20" height="156" x="59" y="40" style="fill:rgb(175,230,175);stroke:none"/>
<text x="66" y="575" fill="rgb(0,0,0)" font-family="Arial" font-size="12">3</text>
<rect width="20" height="260" x="79" y="300" style="fill:rgb(230,195,195);stroke:none"/>
<rect width="20" height="104" x="79" y="196" style="fill:rgb(230,220,195);stroke:none"/>
<rect width="20" height="156" x="79" y="40" style="fill:rgb(195,230,195);stroke:none"/>
<text x="86" y="575" fill="rgb(0,0,0)" font-family="Arial" font-size="12">4</text>
<rect width="20" height="260" x="99" y="300" style="fill:rgb(230,175,175);stroke:none"/>
<rect width="20" height="104" x="99" y="196" style="fill:rgb(230,215,175);stroke:none"/>
<rect width="20" height="156" x="99" y="40" style="fill:rgb(175,230,175);stroke:none"/>
<text x="106" y="575" fill="rgb(0,0,0)" font-family="Arial" font-size="12">5</text>
<rect width="20" height="260" x="119" y="300" style="fill:rgb(230,195,195);stroke:none"/>
<rect width="20" height="104" x="119" y="196" style="fill:rgb(230,220,195);stroke:none"/>
<rect width="20" height="156" x="119" y="40" style="fill:rgb(195,230,195);stroke:none"/>
<text x="126" y="575" fill="rgb(0,0,0)" font-family="Arial" font-size="12">6</text>
<rect width="20" height="260" x="139" y="300" style="fill:rgb(230,175,175);stroke:none"/>
<rect width="20" height="104" x="139" y="196" style="fill:rgb(230,215,175);stroke:none"/>
<rect width="20" height="156" x="139" y="40" style="fill:rgb(175,230,175);stroke:none"/>
<text x="146" y="575" fill="rgb(0,0,0)" font-family="Arial" font-size="12">7</text>
<rect width="20" height="260" x="159" y="300" style="fill:rgb(230,195,195);stroke:none"/>
<rect width="20" height="104" x="159" y="196" style="fill:rgb(230,220,195);stroke:none"/>
<rect width="20" height="156" x="159" y="40" style="fill:rgb(195,230,195);stroke:none"/>
<text x="166" y="575" fill="rgb(0,0,0)" font-family="Arial" font-size="12">8</text>
<rect width="20" height="260" x="179" y="300" style="fill:rgb(230,175,175);stroke:none"/>
<rect width="20" height="104" x="179" y="196" style="fill:rgb(230,215,175);stroke:none"/>
<rect width="20" height="156" x="179" y="40" style="fill:rgb(175,230,175);stroke:none"/>
<text x="186" y="575" fill="rgb(0,0,0)" font-family="Arial" font-size="12">9</text>
<rect width="20" height="260" x="199" y="300" style="fill:rgb(230,195,195);stroke:none"/>
<rect width="20" height="104" x="199" y="196" style="fill:rgb(230,220,195);stroke:none"/>
<rect width="20" height="156" x="199" y="40" style="fill:rgb(195,230,195);stroke:none"/>
<rect width="20" height="260" x="219" y="300" style="fill:rgb(230,175,175);stroke:none"/>
<rect width="20" height="104" x="219" y="196" style="fill:rgb(230,215,175);stroke:none"/>
<rect width="20" height="156" x="219" y="40" style="fill:rgb(175,230,175);stroke:none"/>
<text x="213" y="575" fill="rgb(0,0,0)" font-family="Arial" font-size="12">15-19</text>
<rect width="20" height="260" x="239" y="300" style="fill:rgb(230,195,195);stroke:none"/>
<rect width="20" height="104" x="239" y="196" style="fill:rgb(230,220,195);stroke:none"/>
<rect width="20" height="156" x="239" y="40" style="fill:rgb(195,230,195);stroke:none"/>
<rect width="20" height="260" x="259" y="300" style="fill:rgb(230,175,175);stroke:none"/>
<rect width="20" height="104" x="259" y="196" style="fill:rgb(230,215,175);stroke:none"/>
<rect width="20" height="156" x="259" y="40" style="fill:rgb(175,230,175);stroke:none"/>
<text x="253" y="575" fill="rgb(0,0,0)" font-family="Arial" font-size="12">25-29</text>
<rect width="20" height="260" x="279" y="300" style="fill:rgb(230,195,195);stroke:none"/>
<rect width="20" height="104" x="279" y="196" style="fill:rgb(230,220,195);stroke:none"/>
<rect width="20" height="156" x="279" y="40" style="fill:rgb(195,230,195);stroke:none"/>
<rect width="20" height="260" x="299" y="300" style="fill:rgb(230,175,175);stroke:none"/>
<rect width="20" height="104" x="299" y="196" style="fill:rgb(230,215,175);stroke:none"/>
<rect width="20" height="156" x="299" y="40" style="fill:rgb(175,230,175);stroke:none"/>
<text x="293" y="575" fill="rgb(0,0,0)" font-family="Arial" font-size="12">35-39</text>
<rect width="20" height="260" x="319" y="300" style="fill:rgb(230,195,195);stroke:none"/>
<rect width="20" height="104" x="319" y="196" style="fill:rgb(230,220,195);stroke:none"/>
<rect width="20" height="156" x="319" y="40" style="fill:rgb(195,230,195);stroke:none"/>
<rect width="20" height="260" x="339" y="300" style="fill:rgb(230,175,175);stroke:none"/>
<rect width="20" height="104" x="339" y="196" style="fill:rgb(230,215,175);stroke:none"/>
<rect width="20" height="156" x="339" y="40" style="fill:rgb(175,230,175);stroke:none"/>
<text x="333" y="575" fill="rgb(0,0,0)" font-family="Arial" font-size="12">45-49</text>
<rect width="20" height="260" x="359" y="300" style="fill:rgb(230,195,195);stroke:none"/>
<rect width="20" height="104" x="359" y="196" style="fill:rgb(230,220,195);stroke:none"/>
<rect width="20" height="156" x="359" y="40" style="fill:rgb(195,230,195);stroke:none"/>
<rect width="20" height="260" x="379" y="300" style="fill:rgb(230,175,175);stroke:none"/>
<rect width="20" height="104" x="379" y="196" style="fill:rgb(230,215,175);stroke:none"/>
<rect width="20" height="156" x="379" y="40" style="fill:rgb(175,230,175);stroke:none"/>
<text x="373" y="575" fill="rgb(0,0,0)" font-family="Arial" font-size="12">55-59</text>
<rect width="20" height="260" x="399" y="300" style="fill:rgb(230,195,195);stroke:none"/>
<rect width="20" height="104" x="399" y="196" style="fill:rgb(230,220,195);stroke:none"/>
<rect width="20" height="156" x="399" y="40" style="fill:rgb(195,230,195);stroke:none"/>
<rect width="20" height="260" x="419" y="300" style="fill:rgb(230,175,175);stroke:none"/>
<rect width="20" height="104" x="419" y="196" style="fill:rgb(230,215,175);stroke:none"/>
<rect width="20" height="156" x="419" y="40" style="fill:rgb(175,230,175);stroke:none"/>
<text x="413" y="575" fill="rgb(0,0,0)" font-family="Arial" font-size="12">65-69</text>
<rect width="20" height="260" x="439" y="300" style="fill:rgb(230,195,195);stroke:none"/>
<rect width="20" height="104" x="439" y="196" style="fill:rgb(230,220,195);stroke:none"/>
<rect width="20" height="156" x="439" y="40" style="fill:rgb(195,230,195);stroke:none"/>
<rect width="20" height="260" x="459" y="300" style="fill:rgb(230,175,175);stroke:none"/>
<rect width="20" height="104" x="459" y="196" style="fill:rgb(230,215,175);stroke:none"/>
<rect width="20" height="156" x="459" y="40" style="fill:rgb(175,230,175);stroke:none"/>
<text x="453" y="575" fill="rgb(0,0,0)" font-family="Arial" font-size="12">75-79</text>
<rect width="20" height="260" x="479" y="300" style="fill:rgb(230,195,195);stroke:none"/>
<rect width="20" height="104" x="479" y="196" style="fill:rgb(230,220,195);stroke:none"/>
<rect width="20" height="156" x="479" y="40" style="fill:rgb(195,230,195);stroke:none"/>
<rect width="20" height="260" x="499" y="300" style="fill:rgb(230,175,175);stroke:none"/>
<rect width="20" height="104" x="499" y="196" style="fill:rgb(230,215,175);stroke:none"/>
<rect width="20" height="156" x="499" y="40" style="fill:rgb(175,230,175);stroke:none"/>
<text x="493" y="575" fill="rgb(0,0,0)" font-family="Arial" font-size="12">85-89</text>
<rect width="20" height="260" x="519" y="300" style="fill:rgb(230,195,195);stroke:none"/>
<rect width="20" height="104" x="519" y="196" style="fill:rgb(230,220,195);stroke:none"/>
<rect width="20" height="156" x="519" y="40" style="fill:rgb(195,230,195);stroke:none"/>
<rect width="20" height="260" x="539" y="300" style="fill:rgb(230,175,175);stroke:none"/>
<rect width="20" height="104" x="539" y="196" style="fill:rgb(230,215,175);stroke:none"/>
<rect width="20" height="156" x="539" y="40" style="fill:rgb(175,230,175);stroke:none"/>
<text x="533" y="575" fill="rgb(0,0,0)" font-family="Arial" font-size="12">95-99</text>
<rect width="20" height="260" x="559" y="300" style="fill:rgb(230,195,195);stroke:none"/>
<rect width="20" height="104" x="559" y="196" style="fill:rgb(230,220,195);stroke:none"/>
<rect width="20" height="156" x="559" y="40" style="fill:rgb(195,230,195);stroke:none"/>
<rect width="20" height="260" x="579" y="300" style="fill:rgb(230,175,175);stroke:none"/>
<rect width="20" height="104" x="579" y="196" style="fill:rgb(230,215,175);stroke:none"/>
<rect width="20" height="156" x="579" y="40" style="fill:rgb(175,230,175);stroke:none"/>
<rect width="20" height="260" x="599" y="300" style="fill:rgb(230,195,195);stroke:none"/>
<rect width="20" height="104" x="599" y="196" style="fill:rgb(230,220,195);stroke:none"/>
<rect width="20" height="156" x="599" y="40" style="fill:rgb(195,230,195);stroke:none"/>
<text x="586" y="575" fill="rgb(0,0,0)" font-family="Arial" font-size="12">110-114</text>
<rect width="20" height="260" x="619" y="300" style="fill:rgb(230,175,175);stroke:none"/>
<rect width="20" height="104" x="619" y="196" style="fill:rgb(230,215,175);stroke:none"/>
<rect width="20" height="156" x="619" y="40" style="fill:rgb(175,230,175);stroke:none"/>
<rect width="20" height="260" x="639" y="300" style="fill:rgb(230,195,195);stroke:none"/>
<rect width="20" height="104" x="639" y="196" style="fill:rgb(230,220,195);stroke:none"/>
<rect width="20" height="156" x="639" y="40" style="fill:rgb(195,230,195);stroke:none"/>
<rect width="20" height="260" x="659" y="300" style="fill:rgb(230,175,175);stroke:none"/>
<rect width="20" height="104" x="659" y="196" style="fill:rgb(230,215,175);stroke:none"/>
<rect width="20" height="156" x="659" y="40" style="fill:rgb(175,230,175);stroke:none"/>
<text x="646" y="575" fill="rgb(0,0,0)" font-family="Arial" font-size="12">125-129</text>
<rect width="20" height="260" x="679" y="300" style="fill:rgb(230,195,195);stroke:none"/>
<rect width="20" height="104" x="679" y="196" style="fill:rgb(230,220,195);stroke:none"/>
<rect width="20" height="156" x="679" y="40" style="fill:rgb(195,230,195);stroke:none"/>
<rect width="20" height="260" x="699" y="300" style="fill:rgb(230,175,175);stroke:none"/>
<rect width="20" height="104" x="699" y="196" style="fill:rgb(230,215,175);stroke:none"/>
<rect width="20" height="156" x="699" y="40" style="fill:rgb(175,230,175);stroke:none"/>
<rect width="20" height="260" x="719" y="300" style="fill:rgb(230,195,195);stroke:none"/>
<rect width="20" height="104" x="719" y="196" style="fill:rgb(230,220,195);stroke:none"/>
<rect width="20" height="156" x="719" y="40" style="fill:rgb(195,230,195);stroke:none"/>
<text x="706" y="575" fill="rgb(0,0,0)" font-family="Arial" font-size="12">140-144</text>
<rect width="20" height="260" x="739" y="300" style="fill:rgb(230,175,175);stroke:none"/>
<rect width="20" height="104" x="739" y="196" style="fill:rgb(230,215,175);stroke:none"/>
<rect width="20" height="156" x="739" y="40" style="fill:rgb(175,230,175);stroke:none"/>
<rect width="20" height="260" x="759" y="300" style="fill:rgb(230,195,195);stroke:none"/>
<rect width="20" height="104" x="759" y="196" style="fill:rgb(230,220,195);stroke:none"/>
<rect width="20" height="156" x="759" y="40" style="fill:rgb(195,230,195);stroke:none"/>
<line x1="19" y1="560" x2="790" y2="560" stroke="rgb(0,0,0)" stroke-width="1"/>
<line x1="19" y1="560" x2="19" y2="40" stroke="rgb(0,0,0)" stroke-width="1"/>
<text x="345" y="595" fill="rgb(0,0,0)" font-family="Arial" font-size="12">Position in read (bp)</text>
<rect width="16" height="26" x="21" y="131" style="fill:rgb(240,240,0);stroke:none"/>
<rect width="16" height="26" x="21" y="131" rx="0" ry="0" style="fill:none;stroke-width:1;stroke:rgb(0,0,0)"/>
<line x1="29" y1="131" x2="29" y2="131" stroke="rgb(0,0,0)" stroke-width="1"/>
<line x1="21" y1="131" x2="37" y2="131" stroke="rgb(0,0,0)" stroke-width="1"/>
<line x1="29" y1="326" x2="29" y2="157" stroke="rgb(0,0,0)" stroke-width="1"/>
<line x1="21" y1="326" x2="37" y2="326" stroke="rgb(0,0,0)" stroke-width="1"/>
<line x1="21" y1="144" x2="37" y2="144" stroke="rgb(200,0,0)" stroke-width="1"/>
<rect width="16" height="13" x="41" y="131" style="fill:rgb(240,240,0);stroke:none"/>
<rect width="16" height="13" x="41" y="131" rx="0" ry="0" style="fill:none;stroke-width:1;stroke:rgb(0,0,0)"/>
<line x1="49" y1="118" x2="49" y2="131" stroke="rgb(0,0,0)" stroke-width="1"/>
<line x1="41" y1="118" x2="57" y2="118" stroke="rgb(0,0,0)" stroke-width="1"/>
<line x1="49" y1="326" x2="49" y2="144" stroke="rgb(0,0,0)" stroke-width="1"/>
<line x1="41" y1="326" x2="57" y2="326" stroke="rgb(0,0,0)" stroke-width="1"/>
<line x1="41" y1="144" x2="57" y2="144" stroke="rgb(200,0,0)" stroke-width="1"/>
<rect width="16" height="13" x="61" y="131" style="fill:rgb(240,240,0);stroke:none"/>
<rect width="16" height="13" x="61" y="131" rx="0" ry="0" style="fill:none;stroke-width:1;stroke:rgb(0,0,0)"/>
<line x1="69" y1="118" x2="69" y2="131" stroke="rgb(0,0,0)" stroke-width="1"/>
<line x1="61" y1="118" x2="77" y2="118" stroke="rgb(0,0,0)" stroke-width="1"/>
<line x1="69" y1="183" x2="69" y2="144" stroke="rgb(0,0,0)" stroke-width="1"/>
<line x1="61" y1="183" x2="77" y2="183" stroke="rgb(0,0,0)" stroke-width="1"/>
<line x1="61" y1="144" x2="77" y2="144" stroke="rgb(200,0,0)" stroke-width="1"/>
<rect width="16" height="13" x="81" y="131" style="fill:rgb(240,240,0);stroke:none"/>
<rect width="16" height="13" x="81" y="131" rx="0" ry="0" style="fill:none;stroke-width:1;stroke:rgb(0,0,0)"/>
<line x1="89" y1="118" x2="89" y2="131" stroke="rgb(0,0,0)" stroke-width="1"/>
<line x1="81" y1="118" x2="97" y2="118" stroke="rgb(0,0,0)" stroke-width="1"/>
<line x1="89" y1="326" x2="89" y2="144" stroke="rgb(0,0,0)" stroke-width="1"/>
<line x1="81" y1="326" x2="97" y2="326" stroke="rgb(0,0,0)" stroke-width="1"/>
<line x1="81" y1="144" x2="97" y2="144" stroke="rgb(200,0,0)" stroke-width="1"/>
<rect width="16" height="13" x="101" y="131" style="fill:rgb(240,240,0);stroke:none"/>
<rect width="16" height="13" x="101" y="131" rx="0" ry="0" style="fill:none;stroke-width:1;stroke:rgb(0,0,0)"/>
<line x1="109" y1="118" x2="109" y2="131" stroke="rgb(0,0,0)" stroke-width="1"/>
<line x1="101" y1="118" x2="117" y2="118" stroke="rgb(0,0,0)" stroke-width="1"/>
<line x1="109" y1="183" x2="109" y2="144" stroke="rgb(0,0,0)" stroke-width="1"/>
<line x1="101" y1="183" x2="117" y2="183" stroke="rgb(0,0,0)" stroke-width="1"/>
<line x1="101" y1="144" x2="117" y2="144" stroke="rgb(200,0,0)" stroke-width="1"/>
<rect width="16" height="52" x="121" y="79" style="fill:rgb(240,240,0);stroke:none"/>
<rect width="16" height="52" x="121" y="79" rx="0" ry="0" style="fill:none;stroke-width:1;stroke:rgb(0,0,0)"/>
<line x1="129" y1="79" x2="129" y2="79" stroke="rgb(0,0,0)" stroke-width="1"/>
<line x1="121" y1="79" x2="137" y2="79" stroke="rgb(0,0,0)" stroke-width="1"/>
<line x1="129" y1="183" x2="129" y2="131" stroke="rgb(0,0,0)" stroke-width="1"/>
<line x1="121" y1="183" x2="137" y2="183" stroke="rgb(0,0,0)" stroke-width="1"/>
<line x1="121" y1="79" x2="137" y2="79" stroke="rgb(200,0,0)" stroke-width="1"/>
<rect width="16" height="52" x="141" y="79" style="fill:rgb(240,240,0);stroke:none"/>
<rect width="16" height="52" x="141" y="79" rx="0" ry="0" style="fill:none;stroke-width:1;stroke:rgb(0,0,0)"/>
<line x1="149" y1="79" x2="149" y2="79" stroke="rgb(0,0,0)" stroke-width="1"/>
<line x1="141" y1="79" x2="157" y2="79" stroke="rgb(0,0,0)" stroke-width="1"/>
<line x1="149" y1="170" x2="149" y2="131" stroke="rgb(0,0,0)" stroke-width="1"/>
<line x1="141" y1="170" x2="157" y2="170" stroke="rgb(0,0,0)" stroke-width="1"/>
<line x1="141" y1="79" x2="157" y2="79" stroke="rgb(200,0,0)" stroke-width="1"/>
<rect width="16" height="52" x="161" y="79" style="fill:rgb(240,240,0);stroke:none"/>
<rect width="16" height="52" x="161" y="79" rx="0" ry="0" style="fill:none;stroke-width:1;stroke:rgb(0,0,0)"/>
<line x1="169" y1="79" x2="169" y2="79" stroke="rgb(0,0,0)" stroke-width="1"/>
<line x1="161" y1="79" x2="177" y2="79" stroke="rgb(0,0,0)" stroke-width="1"/>
<line x1="169" y1="183" x2="169" y2="131" stroke="rgb(0,0,0)" stroke-width="1"/>
<line x1="161" y1="183" x2="177" y2="183" stroke="rgb(0,0,0)" stroke-width="1"/>
<line x1="161" y1="79" x2="177" y2="79" stroke="rgb(200,0,0)" stroke-width="1"/>
<rect width="16" height="52" x="181" y="79" style="fill:rgb(240,240,0);stroke:none"/>
<rect width="16" height="52" x="181" y="79" rx="0" ry="0" style="fill:none;stroke-width:1;stroke:rgb(0,0,0)"/>
<line x1="189" y1="79" x2="189" y2="79" stroke="rgb(0,0,0)" stroke-width="1"/>
<line x1="181" y1="79" x2="197" y2="79" stroke="rgb(0,0,0)" stroke-width="1"/>
<line x1="189" y1="170" x2="189" y2="131" stroke="rgb(0,0,0)" stroke-width="1"/>
<line x1="181" y1="170" x2="197" y2="170" stroke="rgb(0,0,0)" stroke-width="1"/>
<line x1="181" y1="79" x2="197" y2="79" stroke="rgb(200,0,0)" stroke-width="1"/>
<rect width="16" height="37" x="201" y="74" style="fill:rgb(240,240,0);stroke:none"/>
<rect width="16" height="37" x="201" y="74" rx="0" ry="0" style="fill:none;stroke-width:1;stroke:rgb(0,0,0)"/>
<line x1="209" y1="74" x2="209" y2="74" stroke="rgb(0,0,0)" stroke-width="1"/>
<line x1="201" y1="74" x2="217" y2="74" stroke="rgb(0,0,0)" stroke-width="1"/>
<line x1="209" y1="152" x2="209" y2="111" stroke="rgb(0,0,0)" stroke-width="1"/>
<line x1="201" y1="152" x2="217" y2="152" stroke="rgb(0,0,0)" stroke-width="1"/>
<line x1="201" y1="74" x2="217" y2="74" stroke="rgb(200,0,0)" stroke-width="1"/>
<rect width="16" height="13" x="221" y="66" style="fill:rgb(240,240,0);stroke:none"/>
<rect width="16" height="13" x="221" y="66" rx="0" ry="0" style="fill:none;stroke-width:1;stroke:rgb(0,0,0)"/>
<line x1="229" y1="66" x2="229" y2="66" stroke="rgb(0,0,0)" stroke-width="1"/>
<line x1="221" y1="66" x2="237" y2="66" stroke="rgb(0,0,0)" stroke-width="1"/>
<line x1="229" y1="144" x2="229" y2="79" stroke="rgb(0,0,0)" stroke-width="1"/>
<line x1="221" y1="144" x2="237" y2="144" stroke="rgb(0,0,0)" stroke-width="1"/>
<line x1="221" y1="66" x2="237" y2="66" stroke="rgb(200,0,0)" stroke-width="1"/>
<rect width="16" height="18" x="241" y="61" style="fill:rgb(240,240,0);stroke:none"/>
<rect width="16" height="18" x="241" y="61" rx="0" ry="0" style="fill:none;stroke-width:1;stroke:rgb(0,0,0)"/>
<line x1="249" y1="61" x2="249" y2="61" stroke="rgb(0,0,0)" stroke-width="1"/>
<line x1="241" y1="61" x2="257" y2="61" stroke="rgb(0,0,0)" stroke-width="1"/>
<line x1="249" y1="144" x2="249" y2="79" stroke="rgb(0,0,0)" stroke-width="1"/>
<line x1="241" y1="144" x2="257" y2="144" stroke="rgb(0,0,0)" stroke-width="1"/>
<line x1="241" y1="66" x2="257" y2="66" stroke="rgb(200,0,0)" stroke-width="1"/>
<rect width="16" height="26" x="261" y="53" style="fill:rgb(240,240,0);stroke:none"/>
<rect width="16" height="26" x="261" y="53" rx="0" ry="0" style="fill:none;stroke-width:1;stroke:rgb(0,0,0)"/>
<line x1="269" y1="53" x2="269" y2="53" stroke="rgb(0,0,0)" stroke-width="1"/>
<line x1="261" y1="53" x2="277" y2="53" stroke="rgb(0,0,0)" stroke-width="1"/>
<line x1="269" y1="144" x2="269" y2="79" stroke="rgb(0,0,0)" stroke-width="1"/>
<line x1="261" y1="144" x2="277" y2="144" stroke="rgb(0,0,0)" stroke-width="1"/>
<line x1="261" y1="66" x2="277" y2="66" stroke="rgb(200,0,0)" stroke-width="1"/>
<rect width="16" height="26" x="281" y="53" style="fill:rgb(240,240,0);stroke:none"/>
<rect width="16" height="26" x="281" y="53" rx="0" ry="0" style="fill:none;stroke-width:1;stroke:rgb(0,0,0)"/>
<line x1="289" y1="53" x2="289" y2="53" stroke="rgb(0,0,0)" stroke-width="1"/>
<line x1="281" y1="53" x2="297" y2="53" stroke="rgb(0,0,0)" stroke-width="1"/>
<line x1="289" y1="144" x2="289" y2="79" stroke="rgb(0,0,0)" stroke-width="1"/>
<line x1="281" y1="144" x2="297" y2="144" stroke="rgb(0,0,0)" stroke-width="1"/>
<line x1="281" y1="66" x2="297" y2="66" stroke="rgb(200,0,0)" stroke-width="1"/>
<rect width="16" height="26" x="301" y="53" style="fill:rgb(240,240,0);stroke:none"/>
<rect width="16" height="26" x="301" y="53" rx="0" ry="0" style="fill:none;stroke-width:1;stroke:rgb(0,0,0)"/>
<line x1="309" y1="53" x2="309" y2="53" stroke="rgb(0,0,0)" stroke-width="1"/>
<line x1="301" y1="53" x2="317" y2="53" stroke="rgb(0,0,0)" stroke-width="1"/>
<line x1="309" y1="144" x2="309" y2="79" stroke="rgb(0,0,0)" stroke-width="1"/>
<line x1="301" y1="144" x2="317" y2="144" stroke="rgb(0,0,0)" stroke-width="1"/>
<line x1="301" y1="66" x2="317" y2="66" stroke="rgb(200,0,0)" stroke-width="1"/>
<rect width="16" height="26" x="321" y="53" style="fill:rgb(240,240,0);stroke:none"/>
<rect width="16" height="26" x="321" y="53" rx="0" ry="0" style="fill:none;stroke-width:1;stroke:rgb(0,0,0)"/>
<line x1="329" y1="53" x2="329" y2="53" stroke="rgb(0,0,0)" stroke-width="1"/>
<line x1="321" y1="53" x2="337" y2="53" stroke="rgb(0,0,0)" stroke-width="1"/>
<line x1="329" y1="144" x2="329" y2="79" stroke="rgb(0,0,0)" stroke-width="1"/>
<line x1="321" y1="144" x2="337" y2="144" stroke="rgb(0,0,0)" stroke-width="1"/>
<line x1="321" y1="66" x2="337" y2="66" stroke="rgb(200,0,0)" stroke-width="1"/>
<rect width="16" height="39" x="341" y="53" style="fill:rgb(240,240,0);stroke:none"/>
<rect width="16" height="39" x="341" y="53" rx="0" ry="0" style="fill:none;stroke-width:1;stroke:rgb(0,0,0)"/>
<line x1="349" y1="53" x2="349" y2="53" stroke="rgb(0,0,0)" stroke-width="1"/>
<line x1="341" y1="53" x2="357" y2="53" stroke="rgb(0,0,0)" stroke-width="1"/>
<line x1="349" y1="150" x2="349" y2="92" stroke="rgb(0,0,0)" stroke-width="1"/>
<line x1="341" y1="150" x2="357" y2="150" stroke="rgb(0,0,0)" stroke-width="1"/>
<line x1="341" y1="66" x2="357" y2="66" stroke="rgb(200,0,0)" stroke-width="1"/>
<rect width="16" height="39" x="361" y="53" style="fill:rgb(240,240,0);stroke:none"/>
<rect width="16" height="39" x="361" y="53" rx="0" ry="0" style="fill:none;stroke-width:1;stroke:rgb(0,0,0)"/>
<line x1="369" y1="53" x2="369" y2="53" stroke="rgb(0,0,0)" stroke-width="1"/>
<line x1="361" y1="53" x2="377" y2="53" stroke="rgb(0,0,0)" stroke-width="1"/>
<line x1="369" y1="160" x2="369" y2="92" stroke="rgb(0,0,0)" stroke-width="1"/>
<line x1="361" y1="160" x2="377" y2="160" stroke="rgb(0,0,0)" stroke-width="1"/>
<line x1="361" y1="66" x2="377" y2="66" stroke="rgb(200,0,0)" stroke-width="1"/>
<rect width="16" height="39" x="381" y="53" style="fill:rgb(240,240,0);stroke:none"/>
<rect width="16" height="39" x="381" y="53" rx="0" ry="0" style="fill:none;stroke-width:1;stroke:rgb(0,0,0)"/>
<line x1="389" y1="53" x2="389" y2="53" stroke="rgb(0,0,0)" stroke-width="1"/>
<line x1="381" y1="53" x2="397" y2="53" stroke="rgb(0,0,0)" stroke-width="1"/>
<line x1="389" y1="194" x2="389" y2="92" stroke="rgb(0,0,0)" stroke-width="1"/>
<line x1="381" y1="194" x2="397" y2="194" stroke="rgb(0,0,0)" stroke-width="1"/>
<line x1="381" y1="66" x2="397" y2="66" stroke="rgb(200,0,0)" stroke-width="1"/>
<rect width="16" height="39" x="401" y="53" style="fill:rgb(240,240,0);stroke:none"/>
<rect width="16" height="39" x="401" y="53" rx="0" ry="0" style="fill:none;stroke-width:1;stroke:rgb(0,0,0)"/>
<line x1="409" y1="53" x2="409" y2="53" stroke="rgb(0,0,0)" stroke-width="1"/>
<line x1="401" y1="53" x2="417" y2="53" stroke="rgb(0,0,0)" stroke-width="1"/>
<line x1="409" y1="204" x2="409" y2="92" stroke="rgb(0,0,0)" stroke-width="1"/>
<line x1="401" y1="204" x2="417" y2="204" stroke="rgb(0,0,0)" stroke-width="1"/>
<line x1="401" y1="66" x2="417" y2="66" stroke="rgb(200,0,0)" stroke-width="1"/>
<rect width="16" height="39" x="421" y="53" style="fill:rgb(240,240,0);stroke:none"/>
<rect width="16" height="39" x="421" y="53" rx="0" ry="0" style="fill:none;stroke-width:1;stroke:rgb(0,0,0)"/>
<line x1="429" y1="53" x2="429" y2="53" stroke="rgb(0,0,0)" stroke-width="1"/>
<line x1="421" y1="53" x2="437" y2="53" stroke="rgb(0,0,0)" stroke-width="1"/>
<line x1="429" y1="204" x2="429" y2="92" stroke="rgb(0,0,0)" stroke-width="1"/>
<line x1="421" y1="204" x2="437" y2="204" stroke="rgb(0,0,0)" stroke-width="1"/>
<line x1="421" y1="66" x2="437" y2="66" stroke="rgb(200,0,0)" stroke-width="1"/>
<rect width="16" height="39" x="441" y="53" style="fill:rgb(240,240,0);stroke:none"/>
<rect width="16" height="39" x="441" y="53" rx="0" ry="0" style="fill:none;stroke-width:1;stroke:rgb(0,0,0)"/>
<line x1="449" y1="53" x2="449" y2="53" stroke="rgb(0,0,0)" stroke-width="1"/>
<line x1="441" y1="53" x2="457" y2="53" stroke="rgb(0,0,0)" stroke-width="1"/>
<line x1="449" y1="181" x2="449" y2="92" stroke="rgb(0,0,0)" stroke-width="1"/>
<line x1="441" y1="181" x2="457" y2="181" stroke="rgb(0,0,0)" stroke-width="1"/>
<line x1="441" y1="66" x2="457" y2="66" stroke="rgb(200,0,0)" stroke-width="1"/>
<rect width="16" height="39" x="461" y="53" style="fill:rgb(240,240,0);stroke:none"/>
<rect width="16" height="39" x="461" y="53" rx="0" ry="0" style="fill:none;stroke-width:1;stroke:rgb(0,0,0)"/>
<line x1="469" y1="53" x2="469" y2="53" stroke="rgb(0,0,0)" stroke-width="1"/>
<line x1="461" y1="53" x2="477" y2="53" stroke="rgb(0,0,0)" stroke-width="1"/>
<line x1="469" y1="256" x2="469" y2="92" stroke="rgb(0,0,0)" stroke-width="1"/>
<line x1="461" y1="256" x2="477" y2="256" stroke="rgb(0,0,0)" stroke-width="1"/>
<line x1="461" y1="66" x2="477" y2="66" stroke="rgb(200,0,0)" stroke-width="1"/>
<rect width="16" height="39" x="481" y="53" style="fill:rgb(240,240,0);stroke:none"/>
<rect width="16" height="39" x="481" y="53" rx="0" ry="0" style="fill:none;stroke-width:1;stroke:rgb(0,0,0)"/>
<line x1="489" y1="53" x2="489" y2="53" stroke="rgb(0,0,0)" stroke-width="1"/>
<line x1="481" y1="53" x2="497" y2="53" stroke="rgb(0,0,0)" stroke-width="1"/>
<line x1="489" y1="282" x2="489" y2="92" stroke="rgb(0,0,0)" stroke-width="1"/>
<line x1="481" y1="282" x2="497" y2="282" stroke="rgb(0,0,0)" stroke-width="1"/>
<line x1="481" y1="66" x2="497" y2="66" stroke="rgb(200,0,0)" stroke-width="1"/>
<rect width="16" height="39" x="501" y="53" style="fill:rgb(240,240,0);stroke:none"/>
<rect width="16" height="39" x="501" y="53" rx="0" ry="0" style="fill:none;stroke-width:1;stroke:rgb(0,0,0)"/>
<line x1="509" y1="53" x2="509" y2="53" stroke="rgb(0,0,0)" stroke-width="1"/>
<line x1="501" y1="53" x2="517" y2="53" stroke="rgb(0,0,0)" stroke-width="1"/>
<line x1="509" y1="277" x2="509" y2="92" stroke="rgb(0,0,0)" stroke-width="1"/>
<line x1="501" y1="277" x2="517" y2="277" stroke="rgb(0,0,0)" stroke-width="1"/>
<line x1="501" y1="66" x2="517" y2="66" stroke="rgb(200,0,0)" stroke-width="1"/>
<rect width="16" height="39" x="521" y="53" style="fill:rgb(240,240,0);stroke:none"/>
<rect width="16" height="39" x="521" y="53" rx="0" ry="0" style="fill:none;stroke-width:1;stroke:rgb(0,0,0)"/>
<line x1="529" y1="53" x2="529" y2="53" stroke="rgb(0,0,0)" stroke-width="1"/>
<line x1="521" y1="53" x2="537" y2="53" stroke="rgb(0,0,0)" stroke-width="1"/>
<line x1="529" y1="308" x2="529" y2="92" stroke="rgb(0,0,0)" stroke-width="1"/>
<line x1="521" y1="308" x2="537" y2="308" stroke="rgb(0,0,0)" stroke-width="1"/>
<line x1="521" y1="66" x2="537" y2="66" stroke="rgb(200,0,0)" stroke-width="1"/>
<rect width="16" height="39" x="541" y="53" style="fill:rgb(240,240,0);stroke:none"/>
<rect width="16" height="39" x="541" y="53" rx="0" ry="0" style="fill:none;stroke-width:1;stroke:rgb(0,0,0)"/>
<line x1="549" y1="53" x2="549" y2="53" stroke="rgb(0,0,0)" stroke-width="1"/>
<line x1="541" y1="53" x2="557" y2="53" stroke="rgb(0,0,0)" stroke-width="1"/>
<line x1="549" y1="319" x2="549" y2="92" stroke="rgb(0,0,0)" stroke-width="1"/>
<line x1="541" y1="319" x2="557" y2="319" stroke="rgb(0,0,0)" stroke-width="1"/>
<line x1="541" y1="66" x2="557" y2="66" stroke="rgb(200,0,0)" stroke-width="1"/>
<rect width="16" height="45" x="561" y="53" style="fill:rgb(240,240,0);stroke:none"/>
<rect width="16" height="45" x="561" y="53" rx="0" ry="0" style="fill:none;stroke-width:1;stroke:rgb(0,0,0)"/>
<line x1="569" y1="53" x2="569" y2="53" stroke="rgb(0,0,0)" stroke-width="1"/>
<line x1="561" y1="53" x2="577" y2="53" stroke="rgb(0,0,0)" stroke-width="1"/>
<line x1="569" y1="326" x2="569" y2="98" stroke="rgb(0,0,0)" stroke-width="1"/>
<line x1="561" y1="326" x2="577" y2="326" stroke="rgb(0,0,0)" stroke-width="1"/>
<line x1="561" y1="66" x2="577" y2="66" stroke="rgb(200,0,0)" stroke-width="1"/>
<rect width="16" height="42" x="581" y="53" style="fill:rgb(240,240,0);stroke:none"/>
<rect width="16" height="42" x="581" y="53" rx="0" ry="0" style="fill:none;stroke-width:1;stroke:rgb(0,0,0)"/>
<line x1="589" y1="53" x2="589" y2="53" stroke="rgb(0,0,0)" stroke-width="1"/>
<line x1="581" y1="53" x2="597" y2="53" stroke="rgb(0,0,0)" stroke-width="1"/>
<line x1="589" y1="326" x2="589" y2="95" stroke="rgb(0,0,0)" stroke-width="1"/>
<line x1="581" y1="326" x2="597" y2="326" stroke="rgb(0,0,0)" stroke-width="1"/>
<line x1="581" y1="66" x2="597" y2="66" stroke="rgb(200,0,0)" stroke-width="1"/>
<rect width="16" height="52" x="601" y="53" style="fill:rgb(240,240,0);stroke:none"/>
<rect width="16" height="52" x="601" y="53" rx="0" ry="0" style="fill:none;stroke-width:1;stroke:rgb(0,0,0)"/>
<line x1="609" y1="53" x2="609" y2="53" stroke="rgb(0,0,0)" stroke-width="1"/>
<line x1="601" y1="53" x2="617" y2="53" stroke="rgb(0,0,0)" stroke-width="1"/>
<line x1="609" y1="332" x2="609" y2="105" stroke="rgb(0,0,0)" stroke-width="1"/>
<line x1="601" y1="332" x2="617" y2="332" stroke="rgb(0,0,0)" stroke-width="1"/>
<line x1="601" y1="66" x2="617" y2="66" stroke="rgb(200,0,0)" stroke-width="1"/>
<rect width="16" height="55" x="621" y="53" style="fill:rgb(240,240,0);stroke:none"/>
<rect width="16" height="55" x="621" y="53" rx="0" ry="0" style="fill:none;stroke-width:1;stroke:rgb(0,0,0)"/>
<line x1="629" y1="53" x2="629" y2="53" stroke="rgb(0,0,0)" stroke-width="1"/>
<line x1="621" y1="53" x2="637" y2="53" stroke="rgb(0,0,0)" stroke-width="1"/>
<line x1="629" y1="339" x2="629" y2="108" stroke="rgb(0,0,0)" stroke-width="1"/>
<line x1="621" y1="339" x2="637" y2="339" stroke="rgb(0,0,0)" stroke-width="1"/>
<line x1="621" y1="66" x2="637" y2="66" stroke="rgb(200,0,0)" stroke-width="1"/>
<rect width="16" height="71" x="641" y="53" style="fill:rgb(240,240,0);stroke:none"/>
<rect width="16" height="71" x="641" y="53" rx="0" ry="0" style="fill:none;stroke-width:1;stroke:rgb(0,0,0)"/>
<line x1="649" y1="53" x2="649" y2="53" stroke="rgb(0,0,0)" stroke-width="1"/>
<line x1="641" y1="53" x2="657" y2="53" stroke="rgb(0,0,0)" stroke-width="1"/>
<line x1="649" y1="342" x2="649" y2="124" stroke="rgb(0,0,0)" stroke-width="1"/>
<line x1="641" y1="342" x2="657" y2="342" stroke="rgb(0,0,0)" stroke-width="1"/>
<line x1="641" y1="66" x2="657" y2="66" stroke="rgb(200,0,0)" stroke-width="1"/>
<rect width="16" height="65" x="661" y="53" style="fill:rgb(240,240,0);stroke:none"/>
<rect width="16" height="65" x="661" y="53" rx="0" ry="0" style="fill:none;stroke-width:1;stroke:rgb(0,0,0)"/>
<line x1="669" y1="53" x2="669" y2="53" stroke="rgb(0,0,0)" stroke-width="1"/>
<line x1="661" y1="53" x2="677" y2="53" stroke="rgb(0,0,0)" stroke-width="1"/>
<line x1="669" y1="339" x2="669" y2="118" stroke="rgb(0,0,0)" stroke-width="1"/>
<line x1="661" y1="339" x2="677" y2="339" stroke="rgb(0,0,0)" stroke-width="1"/>
<line x1="661" y1="66" x2="677" y2="66" stroke="rgb(200,0,0)" stroke-width="1"/>
<rect width="16" height="73" x="681" y="53" style="fill:rgb(240,240,0);stroke:none"/>
<rect width="16" height="73" x="681" y="53" rx="0" ry="0" style="fill:none;stroke-width:1;stroke:rgb(0,0,0)"/>
<line x1="689" y1="53" x2="689" y2="53" stroke="rgb(0,0,0)" stroke-width="1"/>
<line x1="681" y1="53" x2="697" y2="53" stroke="rgb(0,0,0)" stroke-width="1"/>
<line x1="689" y1="350" x2="689" y2="126" stroke="rgb(0,0,0)" stroke-width="1"/>
<line x1="681" y1="350" x2="697" y2="350" stroke="rgb(0,0,0)" stroke-width="1"/>
<line x1="681" y1="66" x2="697" y2="66" stroke="rgb(200,0,0)" stroke-width="1"/>
<rect width="16" height="78" x="701" y="53" style="fill:rgb(240,240,0);stroke:none"/>
<rect width="16" height="78" x="701" y="53" rx="0" ry="0" style="fill:none;stroke-width:1;stroke:rgb(0,0,0)"/>
<line x1="709" y1="53" x2="709" y2="53" stroke="rgb(0,0,0)" stroke-width="1"/>
<line x1="701" y1="53" x2="717" y2="53" stroke="rgb(0,0,0)" stroke-width="1"/>
<line x1="709" y1="352" x2="709" y2="131" stroke="rgb(0,0,0)" stroke-width="1"/>
<line x1="701" y1="352" x2="717" y2="352" stroke="rgb(0,0,0)" stroke-width="1"/>
<line x1="701" y1="74" x2="717" y2="74" stroke="rgb(200,0,0)" stroke-width="1"/>
<rect width="16" height="78" x="721" y="53" style="fill:rgb(240,240,0);stroke:none"/>
<rect width="16" height="78" x="721" y="53" rx="0" ry="0" style="fill:none;stroke-width:1;stroke:rgb(0,0,0)"/>
<line x1="729" y1="53" x2="729" y2="53" stroke="rgb(0,0,0)" stroke-width="1"/>
<line x1="721" y1="53" x2="737" y2="53" stroke="rgb(0,0,0)" stroke-width="1"/>
<line x1="729" y1="352" x2="729" y2="131" stroke="rgb(0,0,0)" stroke-width="1"/>
<line x1="721" y1="352" x2="737" y2="352" stroke="rgb(0,0,0)" stroke-width="1"/>
<line x1="721" y1="79" x2="737" y2="79" stroke="rgb(200,0,0)" stroke-width="1"/>
<rect width="16" height="91" x="741" y="53" style="fill:rgb(240,240,0);stroke:none"/>
<rect width="16" height="91" x="741" y="53" rx="0" ry="0" style="fill:none;stroke-width:1;stroke:rgb(0,0,0)"/>
<line x1="749" y1="53" x2="749" y2="53" stroke="rgb(0,0,0)" stroke-width="1"/>
<line x1="741" y1="53" x2="757" y2="53" stroke="rgb(0,0,0)" stroke-width="1"/>
<line x1="749" y1="352" x2="749" y2="144" stroke="rgb(0,0,0)" stroke-width="1"/>
<line x1="741" y1="352" x2="757" y2="352" stroke="rgb(0,0,0)" stroke-width="1"/>
<line x1="741" y1="79" x2="757" y2="79" stroke="rgb(200,0,0)" stroke-width="1"/>
<rect width="16" height="182" x="761" y="60" style="fill:rgb(240,240,0);stroke:none"/>
<rect width="16" height="182" x="761" y="60" rx="0" ry="0" style="fill:none;stroke-width:1;stroke:rgb(0,0,0)"/>
<line x1="769" y1="53" x2="769" y2="60" stroke="rgb(0,0,0)" stroke-width="1"/>
<line x1="761" y1="53" x2="777" y2="53" stroke="rgb(0,0,0)" stroke-width="1"/>
<line x1="769" y1="365" x2="769" y2="242" stroke="rgb(0,0,0)" stroke-width="1"/>
<line x1="761" y1="365" x2="777" y2="365" stroke="rgb(0,0,0)" stroke-width="1"/>
<line x1="761" y1="99" x2="777" y2="99" stroke="rgb(200,0,0)" stroke-width="1"/>
<line x1="29" y1="169" x2="49" y2="165" stroke="rgb(0,0,200)" stroke-width="1"/>
<line x1="49" y1="165" x2="69" y2="159" stroke="rgb(0,0,200)" stroke-width="1"/>
<line x1="69" y1="159" x2="89" y2="160" stroke="rgb(0,0,200)" stroke-width="1"/>
<line x1="89" y1="160" x2="109" y2="157" stroke="rgb(0,0,200)" stroke-width="1"/>
<line x1="109" y1="157" x2="129" y2="118" stroke="rgb(0,0,200)" stroke-width="1"/>
<line x1="129" y1="118" x2="149" y2="116" stroke="rgb(0,0,200)" stroke-width="1"/>
<line x1="149" y1="116" x2="169" y2="120" stroke="rgb(0,0,200)" stroke-width="1"/>
<line x1="169" y1="120" x2="189" y2="117" stroke="rgb(0,0,200)" stroke-width="1"/>
<line x1="189" y1="117" x2="209" y2="108" stroke="rgb(0,0,200)" stroke-width="1"/>
<line x1="209" y1="108" x2="229" y2="98" stroke="rgb(0,0,200)" stroke-width="1"/>
<line x1="229" y1="98" x2="249" y2="94" stroke="rgb(0,0,200)" stroke-width="1"/>
<line x1="249" y1="94" x2="269" y2="92" stroke="rgb(0,0,200)" stroke-width="1"/>
<line x1="269" y1="92" x2="289" y2="92" stroke="rgb(0,0,200)" stroke-width="1"/>
<line x1="289" y1="92" x2="309" y2="95" stroke="rgb(0,0,200)" stroke-width="1"/>
<line x1="309" y1="95" x2="329" y2="95" stroke="rgb(0,0,200)" stroke-width="1"/>
<line x1="329" y1="95" x2="349" y2="96" stroke="rgb(0,0,200)" stroke-width="1"/>
<line x1="349" y1="96" x2="369" y2="98" stroke="rgb(0,0,200)" stroke-width="1"/>
<line x1="369" y1="98" x2="389" y2="99" stroke="rgb(0,0,200)" stroke-width="1"/>
<line x1="389" y1="99" x2="409" y2="100" stroke="rgb(0,0,200)" stroke-width="1"/>
<line x1="409" y1="100" x2="429" y2="100" stroke="rgb(0,0,200)" stroke-width="1"/>
<line x1="429" y1="100" x2="449" y2="100" stroke="rgb(0,0,200)" stroke-width="1"/>
<line x1="449" y1="100" x2="469" y2="102" stroke="rgb(0,0,200)" stroke-width="1"/>
<line x1="469" y1="102" x2="489" y2="103" stroke="rgb(0,0,200)" stroke-width="1"/>
<line x1="489" y1="103" x2="509" y2="102" stroke="rgb(0,0,200)" stroke-width="1"/>
<line x1="509" y1="102" x2="529" y2="104" stroke="rgb(0,0,200)" stroke-width="1"/>
<line x1="529" y1="104" x2="549" y2="105" stroke="rgb(0,0,200)" stroke-width="1"/>
<line x1="549" y1="105" x2="569" y2="108" stroke="rgb(0,0,200)" stroke-width="1"/>
<line x1="569" y1="108" x2="589" y2="108" stroke="rgb(0,0,200)" stroke-width="1"/>
<line x1="589" y1="108" x2="609" y2="110" stroke="rgb(0,0,200)" stroke-width="1"/>
<line x1="609" y1="110" x2="629" y2="111" stroke="rgb(0,0,200)" stroke-width="1"/>
<line x1="629" y1="111" x2="649" y2="116" stroke="rgb(0,0,200)" stroke-width="1"/>
<line x1="649" y1="116" x2="669" y2="117" stroke="rgb(0,0,200)" stroke-width="1"/>
<line x1="669" y1="117" x2="689" y2="119" stroke="rgb(0,0,200)" stroke-width="1"/>
<line x1="689" y1="119" x2="709" y2="122" stroke="rgb(0,0,200)" stroke-width="1"/>
<line x1="709" y1="122" x2="729" y2="126" stroke="rgb(0,0,200)" stroke-width="1"/>
<line x1="729" y1="126" x2="749" y2="130" stroke="rgb(0,0,200)" stroke-width="1"/>
<line x1="749" y1="130" x2="769" y2="154" stroke="rgb(0,0,200)" stroke-width="1"/>
</svg>
