<?xml version="1.0" standalone="no"?>
<!DOCTYPE svg PUBLIC "-//W3C//DTD SVG 1.1//EN" "http://www.w3.org/Graphics/SVG/1.1/DTD/svg11.dtd">
<svg width="800" height="600" version="1.1" xmlns="http://www.w3.org/2000/svg">
<rect width="800" height="600" x="0" y="0" style="fill:rgb(238,238,238);stroke:none"/>
<rect width="800" height="600" x="0" y="0" style="fill:rgb(255,255,255);stroke:none"/>
<text x="2" y="566" fill="rgb(0,0,0)" font-family="Arial" font-size="12">0</text>
<text x="2" y="508" fill="rgb(0,0,0)" font-family="Arial" font-size="12">100000</text>
<text x="2" y="449" fill="rgb(0,0,0)" font-family="Arial" font-size="12">200000</text>
<text x="2" y="390" fill="rgb(0,0,0)" font-family="Arial" font-size="12">300000</text>
<text x="2" y="332" fill="rgb(0,0,0)" font-family="Arial" font-size="12">400000</text>
<text x="2" y="273" fill="rgb(0,0,0)" font-family="Arial" font-size="12">500000</text>
<text x="2" y="214" fill="rgb(0,0,0)" font-family="Arial" font-size="12">600000</text>
<text x="2" y="155" fill="rgb(0,0,0)" font-family="Arial" font-size="12">700000</text>
<text x="2" y="97" fill="rgb(0,0,0)" font-family="Arial" font-size="12">800000</text>
<text x="295" y="30" fill="rgb(0,0,0)" font-family="Arial" font-size="12">Quality score distribution over all sequences</text>
<line x1="47" y1="560" x2="790" y2="560" stroke="rgb(0,0,0)" stroke-width="1"/>
<line x1="47" y1="560" x2="47" y2="40" stroke="rgb(0,0,0)" stroke-width="1"/>
<text x="295" y="595" fill="rgb(0,0,0)" font-family="Arial" font-size="12">Mean Sequence Quality (Phred Score)</text>
<text x="66" y="575" fill="rgb(0,0,0)" font-family="Arial" font-size="12">25</text>
<rect width="53" height="520" x="100" y="40" style="fill:rgb(230,230,230);stroke:none"/>
<text x="119" y="575" fill="rgb(0,0,0)" font-family="Arial" font-size="12">26</text>
<text x="172" y="575" fill="rgb(0,0,0)" font-family="Arial" font-size="12">27</text>
<rect width="53" height="520" x="206" y="40" style="fill:rgb(230,230,230);stroke:none"/>
<text x="225" y="575" fill="rgb(0,0,0)" font-family="Arial" font-size="12">28</text>
<text x="278" y="575" fill="rgb(0,0,0)" font-family="Arial" font-size="12">29</text>
<rect width="53" height="520" x="312" y="40" style="fill:rgb(230,230,230);stroke:none"/>
<text x="331" y="575" fill="rgb(0,0,0)" font-family="Arial" font-size="12">30</text>
<text x="384" y="575" fill="rgb(0,0,0)" font-family="Arial" font-size="12">31</text>
<rect width="53" height="520" x="418" y="40" style="fill:rgb(230,230,230);stroke:none"/>
<text x="437" y="575" fill="rgb(0,0,0)" font-family="Arial" font-size="12">32</text>
<text x="490" y="575" fill="rgb(0,0,0)" font-family="Arial" font-size="12">33</text>
<rect width="53" height="520" x="524" y="40" style="fill:rgb(230,230,230);stroke:none"/>
<text x="543" y="575" fill="rgb(0,0,0)" font-family="Arial" font-size="12">34</text>
<text x="596" y="575" fill="rgb(0,0,0)" font-family="Arial" font-size="12">35</text>
<rect width="53" height="520" x="630" y="40" style="fill:rgb(230,230,230);stroke:none"/>
<text x="649" y="575" fill="rgb(0,0,0)" font-family="Arial" font-size="12">36</text>
<text x="702" y="575" fill="rgb(0,0,0)" font-family="Arial" font-size="12">37</text>
<rect width="53" height="520" x="736" y="40" style="fill:rgb(230,230,230);stroke:none"/>
<text x="755" y="575" fill="rgb(0,0,0)" font-family="Arial" font-size="12">38</text>
<line x1="47" y1="560" x2="790" y2="560" stroke="rgb(180,180,180)" stroke-width="1"/>
<line x1="47" y1="502" x2="790" y2="502" stroke="rgb(180,180,180)" stroke-width="1"/>
<line x1="47" y1="443" x2="790" y2="443" stroke="rgb(180,180,180)" stroke-width="1"/>
<line x1="47" y1="384" x2="790" y2="384" stroke="rgb(180,180,180)" stroke-width="1"/>
<line x1="47" y1="326" x2="790" y2="326" stroke="rgb(180,180,180)" stroke-width="1"/>
<line x1="47" y1="267" x2="790" y2="267" stroke="rgb(180,180,180)" stroke-width="1"/>
<line x1="47" y1="208" x2="790" y2="208" stroke="rgb(180,180,180)" stroke-width="1"/>
<line x1="47" y1="149" x2="790" y2="149" stroke="rgb(180,180,180)" stroke-width="1"/>
<line x1="47" y1="91" x2="790" y2="91" stroke="rgb(180,180,180)" stroke-width="1"/>
<line x1="73" y1="560" x2="126" y2="560" stroke="rgb(136,34,85)" stroke-width="1"/>
<line x1="126" y1="560" x2="179" y2="560" stroke="rgb(136,34,85)" stroke-width="1"/>
<line x1="179" y1="560" x2="232" y2="559" stroke="rgb(136,34,85)" stroke-width="1"/>
<line x1="232" y1="559" x2="285" y2="558" stroke="rgb(136,34,85)" stroke-width="1"/>
<line x1="285" y1="558" x2="338" y2="557" stroke="rgb(136,34,85)" stroke-width="1"/>
<line x1="338" y1="557" x2="391" y2="556" stroke="rgb(136,34,85)" stroke-width="1"/>
<line x1="391" y1="556" x2="444" y2="553" stroke="rgb(136,34,85)" stroke-width="1"/>
<line x1="444" y1="553" x2="497" y2="549" stroke="rgb(136,34,85)" stroke-width="1"/>
<line x1="497" y1="549" x2="550" y2="542" stroke="rgb(136,34,85)" stroke-width="1"/>
<line x1="550" y1="542" x2="603" y2="529" stroke="rgb(136,34,85)" stroke-width="1"/>
<line x1="603" y1="529" x2="656" y2="498" stroke="rgb(136,34,85)" stroke-width="1"/>
<line x1="656" y1="498" x2="709" y2="360" stroke="rgb(136,34,85)" stroke-width="1"/>
<line x1="709" y1="360" x2="762" y2="40" stroke="rgb(136,34,85)" stroke-width="1"/>
<rect width="156" height="23" x="634" y="40" style="fill:rgb(255,255,255);stroke:none"/>
<rect width="156" height="23" x="634" y="40" rx="0" ry="0" style="fill:none;stroke-width:1;stroke:rgb(192,192,192)"/>
<text x="637" y="55" fill="rgb(136,34,85)" font-family="Arial" font-size="12" font-weight="bold">Average Quality per read</text>
</svg>
