<?xml version="1.0" standalone="no"?>
<!DOCTYPE svg PUBLIC "-//W3C//DTD SVG 1.1//EN" "http://www.w3.org/Graphics/SVG/1.1/DTD/svg11.dtd">
<svg width="800" height="600" version="1.1" xmlns="http://www.w3.org/2000/svg">
<rect width="800" height="600" x="0" y="0" style="fill:rgb(238,238,238);stroke:none"/>
<rect width="800" height="600" x="0" y="0" style="fill:rgb(255,255,255);stroke:none"/>
<text x="2" y="566" fill="rgb(0,0,0)" font-family="Arial" font-size="12">0</text>
<text x="2" y="511" fill="rgb(0,0,0)" font-family="Arial" font-size="12">50000</text>
<text x="2" y="456" fill="rgb(0,0,0)" font-family="Arial" font-size="12">100000</text>
<text x="2" y="400" fill="rgb(0,0,0)" font-family="Arial" font-size="12">150000</text>
<text x="2" y="345" fill="rgb(0,0,0)" font-family="Arial" font-size="12">200000</text>
<text x="2" y="289" fill="rgb(0,0,0)" font-family="Arial" font-size="12">250000</text>
<text x="2" y="234" fill="rgb(0,0,0)" font-family="Arial" font-size="12">300000</text>
<text x="2" y="179" fill="rgb(0,0,0)" font-family="Arial" font-size="12">350000</text>
<text x="2" y="123" fill="rgb(0,0,0)" font-family="Arial" font-size="12">400000</text>
<text x="2" y="68" fill="rgb(0,0,0)" font-family="Arial" font-size="12">450000</text>
<text x="295" y="30" fill="rgb(0,0,0)" font-family="Arial" font-size="12">Quality score distribution over all sequences</text>
<line x1="47" y1="560" x2="790" y2="560" stroke="rgb(0,0,0)" stroke-width="1"/>
<line x1="47" y1="560" x2="47" y2="40" stroke="rgb(0,0,0)" stroke-width="1"/>
<text x="295" y="595" fill="rgb(0,0,0)" font-family="Arial" font-size="12">Mean Sequence Quality (Phred Score)</text>
<text x="64" y="575" fill="rgb(0,0,0)" font-family="Arial" font-size="12">24</text>
<rect width="49" height="520" x="96" y="40" style="fill:rgb(230,230,230);stroke:none"/>
<text x="113" y="575" fill="rgb(0,0,0)" font-family="Arial" font-size="12">25</text>
<text x="162" y="575" fill="rgb(0,0,0)" font-family="Arial" font-size="12">26</text>
<rect width="49" height="520" x="194" y="40" style="fill:rgb(230,230,230);stroke:none"/>
<text x="211" y="575" fill="rgb(0,0,0)" font-family="Arial" font-size="12">27</text>
<text x="260" y="575" fill="rgb(0,0,0)" font-family="Arial" font-size="12">28</text>
<rect width="49" height="520" x="292" y="40" style="fill:rgb(230,230,230);stroke:none"/>
<text x="309" y="575" fill="rgb(0,0,0)" font-family="Arial" font-size="12">29</text>
<text x="358" y="575" fill="rgb(0,0,0)" font-family="Arial" font-size="12">30</text>
<rect width="49" height="520" x="390" y="40" style="fill:rgb(230,230,230);stroke:none"/>
<text x="407" y="575" fill="rgb(0,0,0)" font-family="Arial" font-size="12">31</text>
<text x="456" y="575" fill="rgb(0,0,0)" font-family="Arial" font-size="12">32</text>
<rect width="49" height="520" x="488" y="40" style="fill:rgb(230,230,230);stroke:none"/>
<text x="505" y="575" fill="rgb(0,0,0)" font-family="Arial" font-size="12">33</text>
<text x="554" y="575" fill="rgb(0,0,0)" font-family="Arial" font-size="12">34</text>
<rect width="49" height="520" x="586" y="40" style="fill:rgb(230,230,230);stroke:none"/>
<text x="603" y="575" fill="rgb(0,0,0)" font-family="Arial" font-size="12">35</text>
<text x="652" y="575" fill="rgb(0,0,0)" font-family="Arial" font-size="12">36</text>
<rect width="49" height="520" x="684" y="40" style="fill:rgb(230,230,230);stroke:none"/>
<text x="701" y="575" fill="rgb(0,0,0)" font-family="Arial" font-size="12">37</text>
<text x="750" y="575" fill="rgb(0,0,0)" font-family="Arial" font-size="12">38</text>
<line x1="47" y1="560" x2="790" y2="560" stroke="rgb(180,180,180)" stroke-width="1"/>
<line x1="47" y1="505" x2="790" y2="505" stroke="rgb(180,180,180)" stroke-width="1"/>
<line x1="47" y1="450" x2="790" y2="450" stroke="rgb(180,180,180)" stroke-width="1"/>
<line x1="47" y1="394" x2="790" y2="394" stroke="rgb(180,180,180)" stroke-width="1"/>
<line x1="47" y1="339" x2="790" y2="339" stroke="rgb(180,180,180)" stroke-width="1"/>
<line x1="47" y1="283" x2="790" y2="283" stroke="rgb(180,180,180)" stroke-width="1"/>
<line x1="47" y1="228" x2="790" y2="228" stroke="rgb(180,180,180)" stroke-width="1"/>
<line x1="47" y1="173" x2="790" y2="173" stroke="rgb(180,180,180)" stroke-width="1"/>
<line x1="47" y1="117" x2="790" y2="117" stroke="rgb(180,180,180)" stroke-width="1"/>
<line x1="47" y1="62" x2="790" y2="62" stroke="rgb(180,180,180)" stroke-width="1"/>
<line x1="71" y1="560" x2="120" y2="560" stroke="rgb(136,34,85)" stroke-width="1"/>
<line x1="120" y1="560" x2="169" y2="553" stroke="rgb(136,34,85)" stroke-width="1"/>
<line x1="169" y1="553" x2="218" y2="532" stroke="rgb(136,34,85)" stroke-width="1"/>
<line x1="218" y1="532" x2="267" y2="525" stroke="rgb(136,34,85)" stroke-width="1"/>
<line x1="267" y1="525" x2="316" y2="519" stroke="rgb(136,34,85)" stroke-width="1"/>
<line x1="316" y1="519" x2="365" y2="514" stroke="rgb(136,34,85)" stroke-width="1"/>
<line x1="365" y1="514" x2="414" y2="506" stroke="rgb(136,34,85)" stroke-width="1"/>
<line x1="414" y1="506" x2="463" y2="496" stroke="rgb(136,34,85)" stroke-width="1"/>
<line x1="463" y1="496" x2="512" y2="479" stroke="rgb(136,34,85)" stroke-width="1"/>
<line x1="512" y1="479" x2="561" y2="452" stroke="rgb(136,34,85)" stroke-width="1"/>
<line x1="561" y1="452" x2="610" y2="406" stroke="rgb(136,34,85)" stroke-width="1"/>
<line x1="610" y1="406" x2="659" y2="305" stroke="rgb(136,34,85)" stroke-width="1"/>
<line x1="659" y1="305" x2="708" y2="40" stroke="rgb(136,34,85)" stroke-width="1"/>
<line x1="708" y1="40" x2="757" y2="328" stroke="rgb(136,34,85)" stroke-width="1"/>
<rect width="156" height="23" x="634" y="40" style="fill:rgb(255,255,255);stroke:none"/>
<rect width="156" height="23" x="634" y="40" rx="0" ry="0" style="fill:none;stroke-width:1;stroke:rgb(192,192,192)"/>
<text x="637" y="55" fill="rgb(136,34,85)" font-family="Arial" font-size="12" font-weight="bold">Average Quality per read</text>
</svg>
